<svg version="1.1" xmlns="http://www.w3.org/2000/svg" xmlns:xlink="http://www.w3.org/1999/xlink" width="1076" height="581"><defs/><g><g><path fill="none" stroke="#000000" paint-order="fill stroke markers" d=" M 19.6708984375 30 C 19.6708984375 20.611158399999994 27.282056837499994 13 36.6708984375 13 C 46.059740037500006 13 53.6708984375 20.611158399999994 53.6708984375 30 C 53.6708984375 39.388841600000006 46.059740037500006 47 36.6708984375 47 C 27.282056837499994 47 19.6708984375 39.388841600000006 19.6708984375 30 Z" stroke-miterlimit="10" stroke-dasharray=""/></g><g><path fill="none" stroke="#000000" paint-order="fill stroke markers" d=" M 19.6708984375 47 L 53.6708984375 47" stroke-miterlimit="10" stroke-dasharray=""/></g><g><g><path fill="none" stroke="none"/><text fill="#000000" stroke="none" font-family="Arial" font-size="13px" font-style="normal" font-weight="bold" text-decoration="undefined" x="83.1708984375" y="141.5" text-anchor="middle" dominant-baseline="central" transform="matrix(1 0 0 1 -46 -78)">Admin</text></g></g><g><path fill="none" stroke="#000000" paint-order="fill stroke markers" d=" M 19.6708984375 526 C 19.6708984375 516.6111584 27.282056837499994 509 36.6708984375 509 C 46.059740037500006 509 53.6708984375 516.6111584 53.6708984375 526 C 53.6708984375 535.3888416 46.059740037500006 543 36.6708984375 543 C 27.282056837499994 543 19.6708984375 535.3888416 19.6708984375 526 Z" stroke-miterlimit="10" stroke-dasharray=""/></g><g><path fill="none" stroke="#000000" paint-order="fill stroke markers" d=" M 19.6708984375 543 L 53.6708984375 543" stroke-miterlimit="10" stroke-dasharray=""/></g><g><g><path fill="none" stroke="none"/><text fill="#000000" stroke="none" font-family="Arial" font-size="13px" font-style="normal" font-weight="bold" text-decoration="undefined" x="83.1708984375" y="637.5" text-anchor="middle" dominant-baseline="central" transform="matrix(1 0 0 1 -46 -78)">Admin</text></g></g><g><path fill="none" stroke="#000000" paint-order="fill stroke markers" d=" M 34 66 L 35 509" stroke-miterlimit="10" stroke-dasharray=""/></g><g><rect fill="#ffffff" stroke="none" x="160" y="88" width="120" height="56" transform="matrix(1 0 0 1 -46 -78)"/></g><g><path fill="none" stroke="#000000" paint-order="fill stroke markers" d=" M 114 10 L 234 10 L 234 66 L 114 66 L 114 10 Z Z" stroke-miterlimit="10" stroke-dasharray=""/></g><g><g><path fill="none" stroke="none"/><text fill="#000000" stroke="none" font-family="Arial" font-size="13px" font-style="normal" font-weight="normal" text-decoration="undefined" x="220" y="109" text-anchor="middle" dominant-baseline="text-before-edge" transform="matrix(1 0 0 1 -46 -78)">Admin UI</text></g></g><g><rect fill="#ffffff" stroke="none" x="824" y="88" width="120" height="56" transform="matrix(1 0 0 1 -46 -78)"/></g><g><path fill="none" stroke="#000000" paint-order="fill stroke markers" d=" M 778 10 L 898 10 L 898 66 L 778 66 L 778 10 Z Z" stroke-miterlimit="10" stroke-dasharray=""/></g><g><g><path fill="none" stroke="none"/><text fill="#000000" stroke="none" font-family="Arial" font-size="13px" font-style="normal" font-weight="normal" text-decoration="undefined" x="884" y="109" text-anchor="middle" dominant-baseline="text-before-edge" transform="matrix(1 0 0 1 -46 -78)">DB</text></g></g><g><rect fill="#ffffff" stroke="none" x="664" y="88" width="120" height="56" transform="matrix(1 0 0 1 -46 -78)"/></g><g><path fill="none" stroke="#000000" paint-order="fill stroke markers" d=" M 618 10 L 738 10 L 738 66 L 618 66 L 618 10 Z Z" stroke-miterlimit="10" stroke-dasharray=""/></g><g><g><path fill="none" stroke="none"/><text fill="#000000" stroke="none" font-family="Arial" font-size="13px" font-style="normal" font-weight="normal" text-decoration="undefined" x="724" y="109" text-anchor="middle" dominant-baseline="text-before-edge" transform="matrix(1 0 0 1 -46 -78)">Import woker</text></g></g><g><rect fill="#ffffff" stroke="none" x="504" y="88" width="120" height="56" transform="matrix(1 0 0 1 -46 -78)"/></g><g><path fill="none" stroke="#000000" paint-order="fill stroke markers" d=" M 458 10 L 578 10 L 578 66 L 458 66 L 458 10 Z Z" stroke-miterlimit="10" stroke-dasharray=""/></g><g><g><path fill="none" stroke="none"/><text fill="#000000" stroke="none" font-family="Arial" font-size="13px" font-style="normal" font-weight="normal" text-decoration="undefined" x="564" y="109" text-anchor="middle" dominant-baseline="text-before-edge" transform="matrix(1 0 0 1 -46 -78)">后端 Import API</text></g></g><g><rect fill="#ffffff" stroke="none" x="336" y="88" width="120" height="56" transform="matrix(1 0 0 1 -46 -78)"/></g><g><path fill="none" stroke="#000000" paint-order="fill stroke markers" d=" M 290 10 L 410 10 L 410 66 L 290 66 L 290 10 Z Z" stroke-miterlimit="10" stroke-dasharray=""/></g><g><g><path fill="none" stroke="none"/><text fill="#000000" stroke="none" font-family="Arial" font-size="13px" font-style="normal" font-weight="normal" text-decoration="undefined" x="396" y="109" text-anchor="middle" dominant-baseline="text-before-edge" transform="matrix(1 0 0 1 -46 -78)">前端</text></g></g><g><rect fill="#ffffff" stroke="none" x="992" y="88" width="120" height="56" transform="matrix(1 0 0 1 -46 -78)"/></g><g><path fill="none" stroke="#000000" paint-order="fill stroke markers" d=" M 946 10 L 1066 10 L 1066 66 L 946 66 L 946 10 Z Z" stroke-miterlimit="10" stroke-dasharray=""/></g><g><g><path fill="none" stroke="none"/><text fill="#000000" stroke="none" font-family="Arial" font-size="13px" font-style="normal" font-weight="normal" text-decoration="undefined" x="1052" y="109" text-anchor="middle" dominant-baseline="text-before-edge" transform="matrix(1 0 0 1 -46 -78)">Import Log Store</text></g></g><g><rect fill="#ffffff" stroke="none" x="160" y="568" width="120" height="56" transform="matrix(1 0 0 1 -46 -78)"/></g><g><path fill="none" stroke="#000000" paint-order="fill stroke markers" d=" M 114 490 L 234 490 L 234 546 L 114 546 L 114 490 Z Z" stroke-miterlimit="10" stroke-dasharray=""/></g><g><g><path fill="none" stroke="none"/><text fill="#000000" stroke="none" font-family="Arial" font-size="13px" font-style="normal" font-weight="normal" text-decoration="undefined" x="220" y="589" text-anchor="middle" dominant-baseline="text-before-edge" transform="matrix(1 0 0 1 -46 -78)">Admin UI</text></g></g><g><rect fill="#ffffff" stroke="none" x="328" y="568" width="120" height="56" transform="matrix(1 0 0 1 -46 -78)"/></g><g><path fill="none" stroke="#000000" paint-order="fill stroke markers" d=" M 282 490 L 402 490 L 402 546 L 282 546 L 282 490 Z Z" stroke-miterlimit="10" stroke-dasharray=""/></g><g><g><path fill="none" stroke="none"/><text fill="#000000" stroke="none" font-family="Arial" font-size="13px" font-style="normal" font-weight="normal" text-decoration="undefined" x="388" y="589" text-anchor="middle" dominant-baseline="text-before-edge" transform="matrix(1 0 0 1 -46 -78)">前端</text></g></g><g><rect fill="#ffffff" stroke="none" x="496" y="568" width="120" height="56" transform="matrix(1 0 0 1 -46 -78)"/></g><g><path fill="none" stroke="#000000" paint-order="fill stroke markers" d=" M 450 490 L 570 490 L 570 546 L 450 546 L 450 490 Z Z" stroke-miterlimit="10" stroke-dasharray=""/></g><g><g><path fill="none" stroke="none"/><text fill="#000000" stroke="none" font-family="Arial" font-size="13px" font-style="normal" font-weight="normal" text-decoration="undefined" x="556" y="589" text-anchor="middle" dominant-baseline="text-before-edge" transform="matrix(1 0 0 1 -46 -78)">后端 Import API</text></g></g><g><rect fill="#ffffff" stroke="none" x="664" y="568" width="120" height="56" transform="matrix(1 0 0 1 -46 -78)"/></g><g><path fill="none" stroke="#000000" paint-order="fill stroke markers" d=" M 618 490 L 738 490 L 738 546 L 618 546 L 618 490 Z Z" stroke-miterlimit="10" stroke-dasharray=""/></g><g><g><path fill="none" stroke="none"/><text fill="#000000" stroke="none" font-family="Arial" font-size="13px" font-style="normal" font-weight="normal" text-decoration="undefined" x="724" y="589" text-anchor="middle" dominant-baseline="text-before-edge" transform="matrix(1 0 0 1 -46 -78)">Import woker</text></g></g><g><rect fill="#ffffff" stroke="none" x="824" y="568" width="120" height="56" transform="matrix(1 0 0 1 -46 -78)"/></g><g><path fill="none" stroke="#000000" paint-order="fill stroke markers" d=" M 778 490 L 898 490 L 898 546 L 778 546 L 778 490 Z Z" stroke-miterlimit="10" stroke-dasharray=""/></g><g><g><path fill="none" stroke="none"/><text fill="#000000" stroke="none" font-family="Arial" font-size="13px" font-style="normal" font-weight="normal" text-decoration="undefined" x="884" y="589" text-anchor="middle" dominant-baseline="text-before-edge" transform="matrix(1 0 0 1 -46 -78)">DB</text></g></g><g><rect fill="#ffffff" stroke="none" x="992" y="568" width="120" height="56" transform="matrix(1 0 0 1 -46 -78)"/></g><g><path fill="none" stroke="#000000" paint-order="fill stroke markers" d=" M 946 490 L 1066 490 L 1066 546 L 946 546 L 946 490 Z Z" stroke-miterlimit="10" stroke-dasharray=""/></g><g><g><path fill="none" stroke="none"/><text fill="#000000" stroke="none" font-family="Arial" font-size="13px" font-style="normal" font-weight="normal" text-decoration="undefined" x="1052" y="589" text-anchor="middle" dominant-baseline="text-before-edge" transform="matrix(1 0 0 1 -46 -78)">Import Log Store</text></g></g><g><path fill="none" stroke="#000000" paint-order="fill stroke markers" d=" M 170 66 L 170 494" stroke-miterlimit="10" stroke-dasharray=""/></g><g><path fill="none" stroke="#000000" paint-order="fill stroke markers" d=" M 370 106 L 370 106" stroke-miterlimit="10" stroke-dasharray=""/></g><g><path fill="none" stroke="#000000" paint-order="fill stroke markers" d=" M 346 66 L 344 493" stroke-miterlimit="10" stroke-dasharray=""/></g><g><path fill="none" stroke="#000000" paint-order="fill stroke markers" d=" M 506 66 L 503 488" stroke-miterlimit="10" stroke-dasharray=""/></g><g><path fill="none" stroke="#000000" paint-order="fill stroke markers" d=" M 682 66 L 683 488" stroke-miterlimit="10" stroke-dasharray=""/></g><g><path fill="none" stroke="#000000" paint-order="fill stroke markers" d=" M 834 66 L 835 490" stroke-miterlimit="10" stroke-dasharray=""/></g><g><path fill="none" stroke="#000000" paint-order="fill stroke markers" d=" M 1010 58 L 1010 490" stroke-miterlimit="10" stroke-dasharray=""/></g><g><path fill="none" stroke="#000000" paint-order="fill stroke markers" d=" M 82 114 L 82 114" stroke-miterlimit="10" stroke-dasharray=""/></g><g><path fill="none" stroke="#000000" paint-order="fill stroke markers" d=" M 34 98 L 171 96" stroke-miterlimit="10" stroke-dasharray=""/></g><g><path fill="#000000" stroke="none" paint-order="stroke fill markers" d=" M 160.89985415727756 100.35741367737063 L 171 96 L 160.77696162393406 91.93927514334163"/></g><g><path fill="none" stroke="#000000" paint-order="fill stroke markers" d=" M 160.89985415727756 100.35741367737063 L 171 96 L 160.77696162393406 91.93927514334163 L 160.89985415727756 100.35741367737063" stroke-miterlimit="10" stroke-dasharray=""/></g><g><path fill="none" stroke="#000000" paint-order="fill stroke markers" d=" M 170 122 L 345 120" stroke-miterlimit="10" stroke-dasharray=""/></g><g><path fill="#000000" stroke="none" paint-order="stroke fill markers" d=" M 334.88609439512226 124.32538014694921 L 345 120 L 334.7898831293929 115.90689439562777"/></g><g><path fill="none" stroke="#000000" paint-order="fill stroke markers" d=" M 334.88609439512226 124.32538014694921 L 345 120 L 334.7898831293929 115.90689439562777 L 334.88609439512226 124.32538014694921" stroke-miterlimit="10" stroke-dasharray=""/></g><g><path fill="none" stroke="#000000" paint-order="fill stroke markers" d=" M 346 146 L 505 143" stroke-miterlimit="10" stroke-dasharray=""/></g><g><path fill="#000000" stroke="none" paint-order="stroke fill markers" d=" M 494.91854433794606 147.40048312507167 L 505 143 L 494.759722878895 138.98294579536528"/></g><g><path fill="none" stroke="#000000" paint-order="fill stroke markers" d=" M 494.91854433794606 147.40048312507167 L 505 143 L 494.759722878895 138.98294579536528 L 494.91854433794606 147.40048312507167" stroke-miterlimit="10" stroke-dasharray=""/></g><g><path fill="none" stroke="#000000" paint-order="fill stroke markers" d=" M 506 170 L 681 169" stroke-miterlimit="10" stroke-dasharray=""/></g><g><path fill="#000000" stroke="none" paint-order="stroke fill markers" d=" M 670.8615450539969 173.26752051053833 L 681 169 L 670.8134370650725 164.84862244878127"/></g><g><path fill="none" stroke="#000000" paint-order="fill stroke markers" d=" M 670.8615450539969 173.26752051053833 L 681 169 L 670.8134370650725 164.84862244878127 L 670.8615450539969 173.26752051053833" stroke-miterlimit="10" stroke-dasharray=""/></g><g><path fill="none" stroke="#000000" paint-order="fill stroke markers" d=" M 706 202 L 706 202" stroke-miterlimit="10" stroke-dasharray=""/></g><g><path fill="none" stroke="#000000" paint-order="fill stroke markers" d=" M 682 210 L 721 209" stroke-miterlimit="10" stroke-dasharray=""/></g><g><path fill="none" stroke="#000000" paint-order="fill stroke markers" d=" M 722 178 L 722 210" stroke-miterlimit="10" stroke-dasharray=""/></g><g><path fill="none" stroke="#000000" paint-order="fill stroke markers" d=" M 730 202 L 730 202" stroke-miterlimit="10" stroke-dasharray=""/></g><g><path fill="none" stroke="#000000" paint-order="fill stroke markers" d=" M 714 178 L 714 178" stroke-miterlimit="10" stroke-dasharray=""/></g><g><path fill="none" stroke="#000000" paint-order="fill stroke markers" d=" M 730 170 L 730 170" stroke-miterlimit="10" stroke-dasharray=""/></g><g><path fill="none" stroke="#000000" paint-order="fill stroke markers" d=" M 714 178 L 682 178" stroke-miterlimit="10" stroke-dasharray=""/></g><g><path fill="#000000" stroke="none" paint-order="stroke fill markers" d=" M 692.1626748576241 173.790482243984 L 682 178 L 692.1626748576241 182.209517756016"/></g><g><path fill="none" stroke="#000000" paint-order="fill stroke markers" d=" M 692.1626748576241 173.790482243984 L 682 178 L 692.1626748576241 182.209517756016 L 692.1626748576241 173.790482243984" stroke-miterlimit="10" stroke-dasharray=""/></g><g><path fill="none" stroke="#000000" paint-order="fill stroke markers" d=" M 714 178 L 722 178" stroke-miterlimit="10" stroke-dasharray=""/></g><g><path fill="none" stroke="#000000" paint-order="fill stroke markers" d=" M 682 242 L 834 243" stroke-miterlimit="10" stroke-dasharray=""/></g><g><path fill="#000000" stroke="none" paint-order="stroke fill markers" d=" M 823.8098514720252 247.14256840351646 L 834 243 L 823.8652386649153 238.72371508422657"/></g><g><path fill="none" stroke="#000000" paint-order="fill stroke markers" d=" M 823.8098514720252 247.14256840351646 L 834 243 L 823.8652386649153 238.72371508422657 L 823.8098514720252 247.14256840351646" stroke-miterlimit="10" stroke-dasharray=""/></g><g><path fill="none" stroke="#000000" paint-order="fill stroke markers" d=" M 682 266 L 1010 265" stroke-miterlimit="10" stroke-dasharray=""/></g><g><path fill="#000000" stroke="none" paint-order="stroke fill markers" d=" M 999.8502062093476 269.24048181309996 L 1010 265 L 999.8245385374432 260.8214854285257"/></g><g><path fill="none" stroke="#000000" paint-order="fill stroke markers" d=" M 999.8502062093476 269.24048181309996 L 1010 265 L 999.8245385374432 260.8214854285257 L 999.8502062093476 269.24048181309996" stroke-miterlimit="10" stroke-dasharray=""/></g><g><path fill="none" stroke="#000000" paint-order="fill stroke markers" d=" M 506 322 L 1013 321" stroke-miterlimit="10" stroke-dasharray=""/></g><g><g><path fill="none" stroke="none"/><text fill="#000000" stroke="none" font-family="Arial" font-size="13px" font-style="normal" font-weight="normal" text-decoration="undefined" x="85" y="149" text-anchor="start" dominant-baseline="text-before-edge" transform="matrix(1 0 0 1 -46 -78)">选择并上传菜单文件</text></g></g><g><g><path fill="none" stroke="none"/><text fill="#000000" stroke="none" font-family="Arial" font-size="13px" font-style="normal" font-weight="normal" text-decoration="undefined" x="269" y="173" text-anchor="start" dominant-baseline="text-before-edge" transform="matrix(1 0 0 1 -46 -78)">提交文件</text></g></g><g><g><path fill="none" stroke="none"/><text fill="#000000" stroke="none" font-family="Arial" font-size="13px" font-style="normal" font-weight="normal" text-decoration="undefined" x="429" y="197" text-anchor="start" dominant-baseline="text-before-edge" transform="matrix(1 0 0 1 -46 -78)">POST上环文件</text></g></g><g><g><path fill="none" stroke="none"/><text fill="#000000" stroke="none" font-family="Arial" font-size="13px" font-style="normal" font-weight="normal" text-decoration="undefined" x="589" y="221" text-anchor="start" dominant-baseline="text-before-edge" transform="matrix(1 0 0 1 -46 -78)">提交异步解析任务</text></g></g><g><g><path fill="none" stroke="none"/><text fill="#000000" stroke="none" font-family="Arial" font-size="13px" font-style="normal" font-weight="normal" text-decoration="undefined" x="645" y="261" text-anchor="start" dominant-baseline="text-before-edge" transform="matrix(1 0 0 1 -46 -78)">文件解析+数据校验</text></g></g><g><g><path fill="none" stroke="none"/><text fill="#000000" stroke="none" font-family="Arial" font-size="13px" font-style="normal" font-weight="normal" text-decoration="undefined" x="749" y="301" text-anchor="start" dominant-baseline="text-before-edge" transform="matrix(1 0 0 1 -46 -78)">写入合法数据到DB</text></g></g><g><g><path fill="none" stroke="none"/><text fill="#000000" stroke="none" font-family="Arial" font-size="13px" font-style="normal" font-weight="normal" text-decoration="undefined" x="893" y="325" text-anchor="start" dominant-baseline="text-before-edge" transform="matrix(1 0 0 1 -46 -78)">记录导入日志</text></g></g><g><path fill="none" stroke="#000000" paint-order="fill stroke markers" d=" M 490 210 L 490 210" stroke-miterlimit="10" stroke-dasharray=""/></g><g><path fill="none" stroke="#000000" paint-order="fill stroke markers" d=" M 506 186 L 345 186" stroke-miterlimit="10" stroke-dasharray="6,4"/></g><g><path fill="#000000" stroke="none" paint-order="stroke fill markers" d=" M 355.16267485762415 181.790482243984 L 345 186 L 355.16267485762415 190.209517756016"/></g><g><path fill="none" stroke="#000000" paint-order="fill stroke markers" d=" M 355.16267485762415 181.790482243984 L 345 186 L 355.16267485762415 190.209517756016 L 355.16267485762415 181.790482243984" stroke-miterlimit="10" stroke-dasharray=""/></g><g><g><path fill="none" stroke="none"/><text fill="#000000" stroke="none" font-family="Arial" font-size="13px" font-style="normal" font-weight="normal" text-decoration="undefined" x="421" y="245" text-anchor="start" dominant-baseline="text-before-edge" transform="matrix(1 0 0 1 -46 -78)">返回任务接收</text></g></g><g><path fill="none" stroke="#000000" paint-order="fill stroke markers" d=" M 338 290 L 504 289" stroke-miterlimit="10" stroke-dasharray=""/></g><g><path fill="#000000" stroke="none" paint-order="stroke fill markers" d=" M 493.8628676183414 293.27066119900985 L 504 289 L 493.8121514571733 284.85177844511355"/></g><g><path fill="none" stroke="#000000" paint-order="fill stroke markers" d=" M 493.8628676183414 293.27066119900985 L 504 289 L 493.8121514571733 284.85177844511355 L 493.8628676183414 293.27066119900985" stroke-miterlimit="10" stroke-dasharray=""/></g><g><g><path fill="none" stroke="none"/><text fill="#000000" stroke="none" font-family="Arial" font-size="13px" font-style="normal" font-weight="normal" text-decoration="undefined" x="413" y="349" text-anchor="start" dominant-baseline="text-before-edge" transform="matrix(1 0 0 1 -46 -78)">poll/ws查询导入结果</text></g></g><g><g><path fill="none" stroke="none"/><text fill="#000000" stroke="none" font-family="Arial" font-size="13px" font-style="normal" font-weight="normal" text-decoration="undefined" x="749" y="381" text-anchor="start" dominant-baseline="text-before-edge" transform="matrix(1 0 0 1 -46 -78)">查询导入状态</text></g></g><g><path fill="none" stroke="#000000" paint-order="fill stroke markers" d=" M 1010 346 L 503 347" stroke-miterlimit="10" stroke-dasharray="6,4"/></g><g><path fill="#000000" stroke="none" paint-order="stroke fill markers" d=" M 513.1543523094971 342.7704457475271 L 503 347 L 513.1709578699226 351.1894648832827"/></g><g><path fill="none" stroke="#000000" paint-order="fill stroke markers" d=" M 513.1543523094971 342.7704457475271 L 503 347 L 513.1709578699226 351.1894648832827 L 513.1543523094971 342.7704457475271" stroke-miterlimit="10" stroke-dasharray=""/></g><g><g><path fill="none" stroke="none"/><text fill="#000000" stroke="none" font-family="Arial" font-size="13px" font-style="normal" font-weight="normal" text-decoration="undefined" x="789" y="413" text-anchor="start" dominant-baseline="text-before-edge" transform="matrix(1 0 0 1 -46 -78)">返回状态/日志</text></g></g><g><path fill="none" stroke="#000000" paint-order="fill stroke markers" d=" M 506 362 L 344 362" stroke-miterlimit="10" stroke-dasharray="6,4"/></g><g><path fill="#000000" stroke="none" paint-order="stroke fill markers" d=" M 354.16267485762415 357.790482243984 L 344 362 L 354.16267485762415 366.209517756016"/></g><g><path fill="none" stroke="#000000" paint-order="fill stroke markers" d=" M 354.16267485762415 357.790482243984 L 344 362 L 354.16267485762415 366.209517756016 L 354.16267485762415 357.790482243984" stroke-miterlimit="10" stroke-dasharray=""/></g><g><g><path fill="none" stroke="none"/><text fill="#000000" stroke="none" font-family="Arial" font-size="13px" font-style="normal" font-weight="normal" text-decoration="undefined" x="437" y="421" text-anchor="start" dominant-baseline="text-before-edge" transform="matrix(1 0 0 1 -46 -78)">返回结果</text></g></g><g><path fill="none" stroke="#000000" paint-order="fill stroke markers" d=" M 346 394 L 169 395" stroke-miterlimit="10" stroke-dasharray="6,4"/></g><g><path fill="#000000" stroke="none" paint-order="stroke fill markers" d=" M 179.13873046209306 390.73313409901056 L 169 395 L 179.18629487537189 399.1520352493653"/></g><g><path fill="none" stroke="#000000" paint-order="fill stroke markers" d=" M 179.13873046209306 390.73313409901056 L 169 395 L 179.18629487537189 399.1520352493653 L 179.13873046209306 390.73313409901056" stroke-miterlimit="10" stroke-dasharray=""/></g><g><g><path fill="none" stroke="none"/><text fill="#000000" stroke="none" font-family="Arial" font-size="13px" font-style="normal" font-weight="normal" text-decoration="undefined" x="229" y="453" text-anchor="start" dominant-baseline="text-before-edge" transform="matrix(1 0 0 1 -46 -78)">显示导入成功/失败详情</text></g></g><g><path fill="none" stroke="#000000" paint-order="fill stroke markers" d=" M 170 442 L 35 442" stroke-miterlimit="10" stroke-dasharray="6,4"/></g><g><path fill="#000000" stroke="none" paint-order="stroke fill markers" d=" M 45.162674857624154 437.790482243984 L 35 442 L 45.162674857624154 446.209517756016"/></g><g><path fill="none" stroke="#000000" paint-order="fill stroke markers" d=" M 45.162674857624154 437.790482243984 L 35 442 L 45.162674857624154 446.209517756016 L 45.162674857624154 437.790482243984" stroke-miterlimit="10" stroke-dasharray=""/></g><g><g><path fill="none" stroke="none"/><text fill="#000000" stroke="none" font-family="Arial" font-size="13px" font-style="normal" font-weight="normal" text-decoration="undefined" x="93" y="504" text-anchor="start" dominant-baseline="text-before-edge" transform="matrix(1 0 0 1 -46 -78)">显示最终导入结果</text></g></g></g></svg>