<svg version="1.1" xmlns="http://www.w3.org/2000/svg" xmlns:xlink="http://www.w3.org/1999/xlink" width="629" height="689"><defs/><g><g><rect fill="#C0C0C0" stroke="none" x="167" y="375" width="168" height="128" transform="matrix(1 0 0 1 -150 -110)" fill-opacity="0.2"/></g><g><rect fill="#ffffff" stroke="none" x="160" y="368" width="168" height="128" transform="matrix(1 0 0 1 -150 -110)"/></g><g><path fill="none" stroke="#000000" paint-order="fill stroke markers" d=" M 10 258 L 178 258 L 178 386 L 10 386 L 10 258 Z Z" stroke-miterlimit="10" stroke-dasharray=""/></g><g><path fill="none" stroke="#000000" paint-order="fill stroke markers" d=" M 10 283 L 178 283" stroke-miterlimit="10" stroke-dasharray=""/></g><g><path fill="none" stroke="#000000" paint-order="fill stroke markers" d=" M 10 351 L 178 351" stroke-miterlimit="10" stroke-dasharray=""/></g><g><g><path fill="none" stroke="none"/><text fill="#000000" stroke="none" font-family="Arial" font-size="13px" font-style="normal" font-weight="bold" text-decoration="undefined" x="244.5" y="381.5" text-anchor="middle" dominant-baseline="central" transform="matrix(1 0 0 1 -150 -110)">AuditLog</text></g></g><g><g><path fill="none" stroke="none"/><text fill="#000000" stroke="none" font-family="Arial" font-size="13px" font-style="normal" font-weight="normal" text-decoration="undefined" x="165" y="404.5" text-anchor="start" dominant-baseline="central" transform="matrix(1 0 0 1 -150 -110)">+logId: Long</text></g></g><g><g><path fill="none" stroke="none"/><text fill="#000000" stroke="none" font-family="Arial" font-size="13px" font-style="normal" font-weight="normal" text-decoration="undefined" x="165" y="419.5" text-anchor="start" dominant-baseline="central" transform="matrix(1 0 0 1 -150 -110)">+operateTime: Date</text></g></g><g><g><path fill="none" stroke="none"/><text fill="#000000" stroke="none" font-family="Arial" font-size="13px" font-style="normal" font-weight="normal" text-decoration="undefined" x="165" y="434.5" text-anchor="start" dominant-baseline="central" transform="matrix(1 0 0 1 -150 -110)">+ipAddress: String</text></g></g><g><g><path fill="none" stroke="none"/><text fill="#000000" stroke="none" font-family="Arial" font-size="13px" font-style="normal" font-weight="normal" text-decoration="undefined" x="165" y="449.5" text-anchor="start" dominant-baseline="central" transform="matrix(1 0 0 1 -150 -110)">+detail: String</text></g></g><g><g><path fill="none" stroke="none"/><text fill="#000000" stroke="none" font-family="Arial" font-size="13px" font-style="normal" font-weight="normal" text-decoration="undefined" x="165" y="472.5" text-anchor="start" dominant-baseline="central" transform="matrix(1 0 0 1 -150 -110)">+result: String()</text></g></g><g><rect fill="#C0C0C0" stroke="none" x="487" y="127" width="168" height="128" transform="matrix(1 0 0 1 -150 -110)" fill-opacity="0.2"/></g><g><rect fill="#ffffff" stroke="none" x="480" y="120" width="168" height="128" transform="matrix(1 0 0 1 -150 -110)"/></g><g><path fill="none" stroke="#000000" paint-order="fill stroke markers" d=" M 330 10 L 498 10 L 498 138 L 330 138 L 330 10 Z Z" stroke-miterlimit="10" stroke-dasharray=""/></g><g><path fill="none" stroke="#000000" paint-order="fill stroke markers" d=" M 330 35 L 498 35" stroke-miterlimit="10" stroke-dasharray=""/></g><g><path fill="none" stroke="#000000" paint-order="fill stroke markers" d=" M 330 88 L 498 88" stroke-miterlimit="10" stroke-dasharray=""/></g><g><g><path fill="none" stroke="none"/><text fill="#000000" stroke="none" font-family="Arial" font-size="13px" font-style="normal" font-weight="bold" text-decoration="undefined" x="564.5" y="133.5" text-anchor="middle" dominant-baseline="central" transform="matrix(1 0 0 1 -150 -110)">AdminUser</text></g></g><g><g><path fill="none" stroke="none"/><text fill="#000000" stroke="none" font-family="Arial" font-size="13px" font-style="normal" font-weight="normal" text-decoration="undefined" x="485" y="156.5" text-anchor="start" dominant-baseline="central" transform="matrix(1 0 0 1 -150 -110)">+userId: Long</text></g></g><g><g><path fill="none" stroke="none"/><text fill="#000000" stroke="none" font-family="Arial" font-size="13px" font-style="normal" font-weight="normal" text-decoration="undefined" x="485" y="171.5" text-anchor="start" dominant-baseline="central" transform="matrix(1 0 0 1 -150 -110)">+username: String</text></g></g><g><g><path fill="none" stroke="none"/><text fill="#000000" stroke="none" font-family="Arial" font-size="13px" font-style="normal" font-weight="normal" text-decoration="undefined" x="485" y="186.5" text-anchor="start" dominant-baseline="central" transform="matrix(1 0 0 1 -150 -110)">+role: String</text></g></g><g><rect fill="#C0C0C0" stroke="none" x="479" y="383" width="176" height="120" transform="matrix(1 0 0 1 -150 -110)" fill-opacity="0.2"/></g><g><rect fill="#ffffff" stroke="none" x="472" y="376" width="176" height="120" transform="matrix(1 0 0 1 -150 -110)"/></g><g><path fill="none" stroke="#000000" paint-order="fill stroke markers" d=" M 322 266 L 498 266 L 498 386 L 322 386 L 322 266 Z Z" stroke-miterlimit="10" stroke-dasharray=""/></g><g><path fill="none" stroke="#000000" paint-order="fill stroke markers" d=" M 322 291 L 498 291" stroke-miterlimit="10" stroke-dasharray=""/></g><g><path fill="none" stroke="#000000" paint-order="fill stroke markers" d=" M 322 344 L 498 344" stroke-miterlimit="10" stroke-dasharray=""/></g><g><g><path fill="none" stroke="none"/><text fill="#000000" stroke="none" font-family="Arial" font-size="13px" font-style="normal" font-weight="bold" text-decoration="undefined" x="560.5" y="389.5" text-anchor="middle" dominant-baseline="central" transform="matrix(1 0 0 1 -150 -110)">ActionType</text></g></g><g><g><path fill="none" stroke="none"/><text fill="#000000" stroke="none" font-family="Arial" font-size="13px" font-style="normal" font-weight="normal" text-decoration="undefined" x="477" y="412.5" text-anchor="start" dominant-baseline="central" transform="matrix(1 0 0 1 -150 -110)">+typeId: Long</text></g></g><g><g><path fill="none" stroke="none"/><text fill="#000000" stroke="none" font-family="Arial" font-size="13px" font-style="normal" font-weight="normal" text-decoration="undefined" x="477" y="427.5" text-anchor="start" dominant-baseline="central" transform="matrix(1 0 0 1 -150 -110)">+Name: String</text></g></g><g><g><path fill="none" stroke="none"/><text fill="#000000" stroke="none" font-family="Arial" font-size="13px" font-style="normal" font-weight="normal" text-decoration="undefined" x="477" y="442.5" text-anchor="start" dominant-baseline="central" transform="matrix(1 0 0 1 -150 -110)">+description: String</text></g></g><g><rect fill="#C0C0C0" stroke="none" x="471" y="663" width="176" height="112" transform="matrix(1 0 0 1 -150 -110)" fill-opacity="0.2"/></g><g><rect fill="#ffffff" stroke="none" x="464" y="656" width="176" height="112" transform="matrix(1 0 0 1 -150 -110)"/></g><g><path fill="none" stroke="#000000" paint-order="fill stroke markers" d=" M 314 546 L 490 546 L 490 658 L 314 658 L 314 546 Z Z" stroke-miterlimit="10" stroke-dasharray=""/></g><g><path fill="none" stroke="#000000" paint-order="fill stroke markers" d=" M 314 571 L 490 571" stroke-miterlimit="10" stroke-dasharray=""/></g><g><path fill="none" stroke="#000000" paint-order="fill stroke markers" d=" M 314 624 L 490 624" stroke-miterlimit="10" stroke-dasharray=""/></g><g><g><path fill="none" stroke="none"/><text fill="#000000" stroke="none" font-family="Arial" font-size="13px" font-style="normal" font-weight="bold" text-decoration="undefined" x="552.5" y="669.5" text-anchor="middle" dominant-baseline="central" transform="matrix(1 0 0 1 -150 -110)">TargetResource</text></g></g><g><g><path fill="none" stroke="none"/><text fill="#000000" stroke="none" font-family="Arial" font-size="13px" font-style="normal" font-weight="normal" text-decoration="undefined" x="469" y="692.5" text-anchor="start" dominant-baseline="central" transform="matrix(1 0 0 1 -150 -110)">+resourceId: Long</text></g></g><g><g><path fill="none" stroke="none"/><text fill="#000000" stroke="none" font-family="Arial" font-size="13px" font-style="normal" font-weight="normal" text-decoration="undefined" x="469" y="707.5" text-anchor="start" dominant-baseline="central" transform="matrix(1 0 0 1 -150 -110)">+resourceType: String</text></g></g><g><g><path fill="none" stroke="none"/><text fill="#000000" stroke="none" font-family="Arial" font-size="13px" font-style="normal" font-weight="normal" text-decoration="undefined" x="469" y="722.5" text-anchor="start" dominant-baseline="central" transform="matrix(1 0 0 1 -150 -110)">+targetBizId: Long</text></g></g><g><rect fill="#C0C0C0" stroke="none" x="703" y="655" width="72" height="45" transform="matrix(1 0 0 1 -150 -110)" fill-opacity="0.2"/></g><g><rect fill="#ffffff" stroke="none" x="696" y="648" width="72" height="45" transform="matrix(1 0 0 1 -150 -110)"/></g><g><path fill="none" stroke="#000000" paint-order="fill stroke markers" d=" M 546 538 L 618 538 L 618 583 L 546 583 L 546 538 Z Z" stroke-miterlimit="10" stroke-dasharray=""/></g><g><path fill="none" stroke="#000000" paint-order="fill stroke markers" d=" M 546 563 L 618 563" stroke-miterlimit="10" stroke-dasharray=""/></g><g><path fill="none" stroke="#000000" paint-order="fill stroke markers" d=" M 546 573 L 618 573" stroke-miterlimit="10" stroke-dasharray=""/></g><g><g><path fill="none" stroke="none"/><text fill="#000000" stroke="none" font-family="Arial" font-size="13px" font-style="normal" font-weight="bold" text-decoration="undefined" x="732.5" y="661.5" text-anchor="middle" dominant-baseline="central" transform="matrix(1 0 0 1 -150 -110)">Order </text></g></g><g><rect fill="#C0C0C0" stroke="none" x="695" y="751" width="72" height="45" transform="matrix(1 0 0 1 -150 -110)" fill-opacity="0.2"/></g><g><rect fill="#ffffff" stroke="none" x="688" y="744" width="72" height="45" transform="matrix(1 0 0 1 -150 -110)"/></g><g><path fill="none" stroke="#000000" paint-order="fill stroke markers" d=" M 538 634 L 610 634 L 610 679 L 538 679 L 538 634 Z Z" stroke-miterlimit="10" stroke-dasharray=""/></g><g><path fill="none" stroke="#000000" paint-order="fill stroke markers" d=" M 538 659 L 610 659" stroke-miterlimit="10" stroke-dasharray=""/></g><g><path fill="none" stroke="#000000" paint-order="fill stroke markers" d=" M 538 669 L 610 669" stroke-miterlimit="10" stroke-dasharray=""/></g><g><g><path fill="none" stroke="none"/><text fill="#000000" stroke="none" font-family="Arial" font-size="13px" font-style="normal" font-weight="bold" text-decoration="undefined" x="724.5" y="757.5" text-anchor="middle" dominant-baseline="central" transform="matrix(1 0 0 1 -150 -110)">MenuItem</text></g></g><g><path fill="none" stroke="#000000" paint-order="fill stroke markers" d=" M 179 323 L 321 325" stroke-miterlimit="10" stroke-dasharray=""/></g><g><path fill="none" stroke="#000000" paint-order="fill stroke markers" d=" M 310.77904989162334 329.0659782195771 L 321 325 L 310.89761609697774 320.64777763941726" stroke-miterlimit="10" stroke-dasharray=""/></g><g><g><path fill="none" stroke="none"/><text fill="#000000" stroke="none" font-family="Arial" font-size="13px" font-style="normal" font-weight="normal" text-decoration="undefined" x="357" y="405" text-anchor="start" dominant-baseline="text-before-edge" transform="matrix(1 0 0 1 -150 -110)">操作类型</text><text fill="#000000" stroke="none" font-family="Arial" font-size="13px" font-style="normal" font-weight="normal" text-decoration="undefined" x="357" y="418" text-anchor="start" dominant-baseline="text-before-edge" transform="matrix(1 0 0 1 -150 -110)">actionType</text></g></g><g><path fill="none" stroke="#000000" paint-order="fill stroke markers" d=" M 178 257 L 330 139" stroke-miterlimit="10" stroke-dasharray=""/></g><g><path fill="none" stroke="#000000" paint-order="fill stroke markers" d=" M 324.5537496789553 148.55711030806492 L 330 139 L 319.39102195856935 141.90681697333045" stroke-miterlimit="10" stroke-dasharray=""/></g><g><g><path fill="none" stroke="none"/><text fill="#000000" stroke="none" font-family="Arial" font-size="13px" font-style="normal" font-weight="normal" text-decoration="undefined" x="325" y="269" text-anchor="start" dominant-baseline="text-before-edge" transform="matrix(1 0 0 1 -150 -110)">操作人 admin</text><text fill="#000000" stroke="none" font-family="Arial" font-size="13px" font-style="normal" font-weight="normal" text-decoration="undefined" x="325" y="282" text-anchor="start" dominant-baseline="text-before-edge" transform="matrix(1 0 0 1 -150 -110)">User</text></g></g><g><path fill="none" stroke="#000000" paint-order="fill stroke markers" d=" M 166 387 L 339 545" stroke-miterlimit="10" stroke-dasharray=""/></g><g><path fill="none" stroke="#000000" paint-order="fill stroke markers" d=" M 328.65717632324606 541.2548700434327 L 339 545 L 334.33472603026416 535.0383124528369" stroke-miterlimit="10" stroke-dasharray=""/></g><g><g><path fill="none" stroke="none"/><text fill="#000000" stroke="none" font-family="Arial" font-size="13px" font-style="normal" font-weight="normal" text-decoration="undefined" x="429" y="573" text-anchor="start" dominant-baseline="text-before-edge" transform="matrix(1 0 0 1 -150 -110)">目标资源targetResource</text></g></g><g><path fill="none" stroke="#000000" paint-order="fill stroke markers" d=" M 545 569 L 491 581" stroke-miterlimit="10" stroke-dasharray=""/></g><g><path fill="#FFFFFF" stroke="none" paint-order="stroke fill markers" d=" M 509.0149981577224 568.3722590548721 L 491 581 L 512.6676886137556 584.8093661070217"/></g><g><path fill="none" stroke="#000000" paint-order="fill stroke markers" d=" M 509.0149981577224 568.3722590548721 L 491 581 L 512.6676886137556 584.8093661070217 L 509.0149981577224 568.3722590548721" stroke-miterlimit="10" stroke-dasharray=""/></g><g><path fill="none" stroke="#000000" paint-order="fill stroke markers" d=" M 537 644 L 491 630" stroke-miterlimit="10" stroke-dasharray=""/></g><g><path fill="#FFFFFF" stroke="none" paint-order="stroke fill markers" d=" M 512.8960311661754 627.8636902916761 L 491 630 L 507.9934312001451 643.9722330372041"/></g><g><path fill="none" stroke="#000000" paint-order="fill stroke markers" d=" M 512.8960311661754 627.8636902916761 L 491 630 L 507.9934312001451 643.9722330372041 L 512.8960311661754 627.8636902916761" stroke-miterlimit="10" stroke-dasharray=""/></g></g></svg>